<svg id="Layer_1" data-name="Layer 1" xmlns="http://www.w3.org/2000/svg" viewBox="0 0 59 78.26"><defs><style>.cls-1{isolation:isolate;}.cls-2{fill:#72ffeb;}</style></defs><g class="cls-1"><g class="cls-1"><path class="cls-2" d="M4.34,54.9a19.13,19.13,0,0,0,10.6,3.2C22.2,58.1,26.64,54,26.64,48c0-5.44-2.82-8.64-9.83-11.34C9,33.89,4.32,29.88,4.32,23.27,4.32,16.16,10.19,11,18.43,11c4.56,0,8,1.17,9.67,2.28l-1.33,2.88a15.76,15.76,0,0,0-8.57-2.3c-7.83,0-10.5,5-10.5,8.84,0,5.38,3.12,8.13,10.07,10.85C25.78,36.77,30,40.41,30,47.68,30,54.72,25,61,14.64,61c-4.2,0-9.08-1.37-11.6-3.26Z"/><path class="cls-2" d="M32.08,12.29a56.61,56.61,0,0,1,10.36-.94c5.8,0,10.16,1.5,12.84,4.11A12.77,12.77,0,0,1,59,25c0,4.18-1.17,7.29-3.37,9.71-3.1,3.56-8.32,5.41-14.26,5.41a20.75,20.75,0,0,1-5.88-.57V60.26H32.08ZM35.5,36.5a21.62,21.62,0,0,0,6.15.71c8.7,0,13.9-4.22,13.9-11.9S50,14.23,42.32,14.23a35.39,35.39,0,0,0-6.82.58Z"/></g></g></svg>